<?xml version="1.0" encoding="UTF-8" standalone="no"?>
<!-- Created with Inkscape (http://www.inkscape.org/) -->

<svg
   xmlns:dc="http://purl.org/dc/elements/1.1/"
   xmlns:cc="http://creativecommons.org/ns#"
   xmlns:rdf="http://www.w3.org/1999/02/22-rdf-syntax-ns#"
   xmlns:svg="http://www.w3.org/2000/svg"
   xmlns="http://www.w3.org/2000/svg"
   xmlns:sodipodi="http://sodipodi.sourceforge.net/DTD/sodipodi-0.dtd"
   xmlns:inkscape="http://www.inkscape.org/namespaces/inkscape"
   width="163.27814mm"
   height="17.365133mm"
   viewBox="0 0 163.27814 17.365133"
   version="1.1"
   id="svg8"
   inkscape:version="0.92.2 (5c3e80d, 2017-08-06)"
   sodipodi:docname="LetrasCompletas.svg"
   inkscape:export-filename="D:\Inkscape\The Workshop\Letras completas transparente.png"
   inkscape:export-xdpi="96"
   inkscape:export-ydpi="96">
  <defs
     id="defs2" />
  <sodipodi:namedview
     id="base"
     pagecolor="#e24d2a"
     bordercolor="#666666"
     borderopacity="1.0"
     inkscape:pageopacity="0"
     inkscape:pageshadow="2"
     inkscape:zoom="0.89618415"
     inkscape:cx="131.22641"
     inkscape:cy="-53.47587"
     inkscape:document-units="mm"
     inkscape:current-layer="layer1"
     showgrid="false"
     inkscape:window-width="1920"
     inkscape:window-height="1017"
     inkscape:window-x="-8"
     inkscape:window-y="91"
     inkscape:window-maximized="1"
     inkscape:pagecheckerboard="true"
     showborder="true" />
  <metadata
     id="metadata5">
    <rdf:RDF>
      <cc:Work
         rdf:about="">
        <dc:format>image/svg+xml</dc:format>
        <dc:type
           rdf:resource="http://purl.org/dc/dcmitype/StillImage" />
        <dc:title />
      </cc:Work>
    </rdf:RDF>
  </metadata>
  <g
     inkscape:label="Letras"
     inkscape:groupmode="layer"
     id="layer1"
     transform="translate(-18.654255,-131.07865)">
    <g
       inkscape:groupmode="layer"
       id="layer2"
       inkscape:label="Sombra letras" />
    <flowRoot
       xml:space="preserve"
       id="flowRoot10"
       style="font-style:normal;font-variant:normal;font-weight:normal;font-stretch:normal;font-size:40px;line-height:1.25;font-family:Bungee;-inkscape-font-specification:'Bungee, Normal';font-variant-ligatures:normal;font-variant-caps:normal;font-variant-numeric:normal;font-feature-settings:normal;text-align:start;letter-spacing:0px;word-spacing:0px;writing-mode:lr-tb;text-anchor:start;fill:#000000;fill-opacity:1;stroke:none"
       transform="scale(0.26458333)"><flowRegion
         id="flowRegion12"
         style="font-style:normal;font-variant:normal;font-weight:normal;font-stretch:normal;font-size:40px;font-family:Bungee;-inkscape-font-specification:'Bungee, Normal';font-variant-ligatures:normal;font-variant-caps:normal;font-variant-numeric:normal;font-feature-settings:normal;text-align:start;writing-mode:lr-tb;text-anchor:start"><rect
           id="rect14"
           width="662.85712"
           height="188.57143"
           x="60"
           y="73.948257"
           style="font-style:normal;font-variant:normal;font-weight:normal;font-stretch:normal;font-size:40px;font-family:Bungee;-inkscape-font-specification:'Bungee, Normal';font-variant-ligatures:normal;font-variant-caps:normal;font-variant-numeric:normal;font-feature-settings:normal;text-align:start;writing-mode:lr-tb;text-anchor:start" /></flowRegion><flowPara
         id="flowPara16" /></flowRoot>    <g
       id="g834">
      <g
         aria-label="The Workshop"
         style="font-style:normal;font-variant:normal;font-weight:bold;font-stretch:normal;font-size:19.75555611px;line-height:1.25;font-family:'Bungee Layers';-inkscape-font-specification:'Bungee Layers, Bold';font-variant-ligatures:normal;font-variant-caps:normal;font-variant-numeric:normal;font-feature-settings:normal;text-align:start;letter-spacing:0px;word-spacing:0px;writing-mode:lr-tb;text-anchor:start;fill:#550000;fill-opacity:1;stroke:none;stroke-width:0.26458332"
         id="text20">
        <path
           d="m 26.378678,148.14745 c 0.276578,0 0.493889,-0.079 0.612422,-0.19756 l 2.568222,-2.1336 c 0.1778,-0.15804 0.276578,-0.37535 0.276578,-0.73095 v -7.34907 h 0.158045 c 0.276577,0 0.493889,-0.079 0.612422,-0.19755 l 2.568222,-2.1336 c 0.1778,-0.15805 0.276578,-0.37536 0.276578,-0.73096 v -2.39042 c 0,-0.63218 -0.276578,-0.90876 -0.908756,-0.90876 H 22.111478 c -0.276578,0 -0.493889,0.0593 -0.632178,0.1778 l -2.548467,2.15336 c -0.1778,0.15804 -0.276578,0.37535 -0.276578,0.73095 v 2.39043 c 0,0.63217 0.276578,0.90875 0.908756,0.90875 h 2.706511 v 9.50242 c 0,0.63218 0.276578,0.90876 0.908756,0.90876 z"
           style=""
           id="path824" />
        <path
           d="m 39.580328,145.81629 c 0.1778,-0.15804 0.276578,-0.37535 0.276578,-0.73095 v -2.03482 h 0.3556 v 4.18817 c 0,0.63218 0.276578,0.90876 0.908755,0.90876 h 3.062112 c 0.276577,0 0.493888,-0.079 0.612422,-0.19756 l 2.568222,-2.1336 c 0.1778,-0.15804 0.276578,-0.37535 0.276578,-0.73095 v -12.8016 c 0,-0.63218 -0.276578,-0.90876 -0.908756,-0.90876 h -3.062111 c -0.276578,0 -0.493889,0.0593 -0.632178,0.1778 l -2.548466,2.15336 c -0.1778,0.15804 -0.276578,0.37535 -0.276578,0.73095 v 1.93605 h -0.3556 v -4.0894 c 0,-0.63218 -0.276578,-0.90876 -0.908756,-0.90876 h -3.062111 c -0.276578,0 -0.493889,0.0593 -0.632178,0.1778 l -2.548467,2.15336 c -0.1778,0.15804 -0.276577,0.37535 -0.276577,0.73095 v 12.8016 c 0,0.63218 0.276577,0.90876 0.908755,0.90876 h 3.062111 c 0.276578,0 0.493889,-0.079 0.612423,-0.19756 z"
           style=""
           id="path826" />
        <path
           d="m 57.513741,148.14745 c 0.276578,0 0.493889,-0.079 0.612423,-0.19756 l 2.568222,-2.1336 c 0.1778,-0.15804 0.276578,-0.37535 0.276578,-0.73095 v -2.3114 c 0,-0.63218 -0.276578,-0.90876 -0.908756,-0.90876 h -2.726267 l 1.758245,-1.48166 c 0.1778,-0.15805 0.276578,-0.37536 0.276578,-0.73096 v -2.11384 c 0,-0.41487 -0.118534,-0.67169 -0.375356,-0.80998 l 1.698978,-1.40265 c 0.1778,-0.15804 0.276578,-0.37535 0.276578,-0.73095 v -2.3114 c 0,-0.63218 -0.276578,-0.90876 -0.908756,-0.90876 H 50.89563 c -0.276578,0 -0.493889,0.0593 -0.632178,0.1778 l -2.548466,2.15336 c -0.1778,0.15804 -0.276578,0.37535 -0.276578,0.73095 v 12.8016 c 0,0.63218 0.276578,0.90876 0.908755,0.90876 z"
           style=""
           id="path828" />
        <path
           d="m 70.333245,147.91038 2.271889,-1.89653 0.395111,1.40264 c 0.158044,0.49389 0.572911,0.73096 1.106311,0.73096 h 2.627489 c 0.237067,0 0.414867,-0.079 0.572911,-0.23707 l 2.548467,-2.11384 c 0.197555,-0.1778 0.316089,-0.39511 0.395111,-0.65193 l 0.987778,-2.68676 c 0.375355,-0.98778 0.375355,-1.63971 0.375355,-2.50896 v -7.66515 c 0,-0.63218 -0.276578,-0.90876 -0.908755,-0.90876 h -2.943578 c -0.296334,0 -0.493889,0.0593 -0.632178,0.1778 l -2.568222,2.15336 -0.01976,0.0197 c -0.158044,0.13829 -0.237066,0.3556 -0.237066,0.7112 v 1.81752 h -0.276578 c -0.375356,0 -0.671689,0.079 -0.889,0.25682 l -1.106311,0.92851 v -5.1562 c 0,-0.63218 -0.276578,-0.90876 -0.908756,-0.90876 h -3.042356 c -0.276577,0 -0.493889,0.0593 -0.632177,0.1778 l -2.548467,2.15336 c -0.1778,0.15804 -0.276578,0.37535 -0.276578,0.73095 v 7.62565 c 0,0.86924 0,1.52118 0.375356,2.50895 l 0.987777,2.72627 c 0.158045,0.51365 0.5334,0.84949 1.047045,0.84949 H 69.6418 c 0.256822,0 0.493889,-0.0988 0.691445,-0.23707 z"
           style=""
           id="path830" />
        <path
           d="m 92.461011,147.19918 2.548467,-2.1336 c 0.889,-0.75071 1.185333,-1.778 1.185333,-3.00284 v -6.73665 c 0,-2.4892 -1.145822,-4.24744 -6.321778,-4.24744 -2.647244,0 -4.207933,0.45438 -5.136445,1.2446 l -2.568222,2.1336 c -0.889,0.75071 -1.185333,1.79776 -1.185333,3.0226 v 6.14398 c 0,2.4892 1.165578,4.82035 6.341533,4.82035 2.627489,0 4.207934,-0.45437 5.136445,-1.2446 z m -4.049889,-5.84764 v -3.7338 c 0.296333,0.11853 0.375355,0.31609 0.375355,0.57291 v 3.75356 c -0.296333,-0.13829 -0.375355,-0.33585 -0.375355,-0.59267 z"
           style=""
           id="path832" />
        <path
           d="m 102.87867,145.81629 c 0.1778,-0.15804 0.27658,-0.37535 0.27658,-0.73095 v -1.52118 h 0.0198 c 0.41486,0 0.55315,0.21731 0.55315,0.65193 v 3.0226 c 0,0.63218 0.27658,0.90876 0.90876,0.90876 h 3.06211 c 0.27658,0 0.49389,-0.079 0.61242,-0.19756 l 2.56822,-2.1336 c 0.1778,-0.15804 0.27658,-0.37535 0.27658,-0.73095 v -4.18818 c 0,-1.56069 -0.80998,-2.60773 -2.05458,-2.96333 h 0.0198 c 0.5334,-0.45438 0.75071,-1.18534 0.75071,-2.15336 v -0.90875 c 0,-2.05458 -0.94827,-3.49674 -4.0894,-3.49674 h -6.5786 c -0.276578,0 -0.493889,0.0593 -0.632178,0.1778 l -2.548467,2.15336 c -0.1778,0.15804 -0.276577,0.37535 -0.276577,0.73095 v 12.8016 c 0,0.63218 0.276577,0.90876 0.908755,0.90876 h 3.042356 c 0.276578,0 0.493891,-0.079 0.612421,-0.19756 z"
           style=""
           id="path834" />
        <path
           d="m 117.56075,145.81629 c 0.1778,-0.15804 0.27658,-0.37535 0.27658,-0.73095 v -2.15336 c 0.19756,0.0395 0.29633,0.19756 0.29633,0.45438 v 3.85233 c 0,0.63218 0.27658,0.90876 0.90876,0.90876 h 3.04235 c 0.27658,0 0.49389,-0.079 0.61243,-0.19756 l 2.56822,-2.1336 c 0.1778,-0.15804 0.27658,-0.37535 0.27658,-0.73095 v -5.57107 c 0,-1.6002 -0.90876,-2.667 -2.33116,-2.86455 l 1.89653,-4.34623 c 0.25683,-0.59266 0.0395,-0.92851 -0.61242,-0.92851 h -3.04235 c -0.3556,0 -0.61243,0.079 -0.80998,0.23707 l -2.54847,2.15336 c -0.0988,0.079 -0.1778,0.19755 -0.25682,0.31608 v -1.79775 c 0,-0.63218 -0.27658,-0.90876 -0.90876,-0.90876 h -3.06211 c -0.27657,0 -0.49389,0.0593 -0.63217,0.1778 l -2.54847,2.15336 c -0.1778,0.15804 -0.27658,0.37535 -0.27658,0.73095 v 12.8016 c 0,0.63218 0.27658,0.90876 0.90876,0.90876 h 3.06211 c 0.27658,0 0.49389,-0.079 0.61242,-0.19756 z"
           style=""
           id="path836" />
        <path
           d="m 125.7019,148.14745 h 6.24275 c 1.32363,0 2.39043,-0.33584 3.12138,-0.94827 l 2.54847,-2.1336 c 0.77047,-0.63217 1.16558,-1.56069 1.16558,-2.74602 v -2.07433 c 0,-2.1336 -1.08656,-3.0226 -2.76578,-3.39796 l 1.778,-1.48166 c 0.1778,-0.15805 0.27658,-0.37536 0.27658,-0.73096 v -2.35091 c 0,-0.63218 -0.27658,-0.90876 -0.90876,-0.90876 h -5.53156 c -1.34337,0 -2.41017,0.33585 -3.12137,0.92851 l -2.56823,2.15336 c -0.75071,0.63218 -1.14582,1.56069 -1.14582,2.74602 v 2.07434 c 0,1.91628 0.84949,2.82504 2.25214,3.25966 l -1.97556,1.65947 c -0.1778,0.15804 -0.27658,0.37535 -0.27658,0.73095 v 2.3114 c 0,0.63218 0.27658,0.90876 0.90876,0.90876 z"
           style=""
           id="path838" />
        <path
           d="m 145.14908,145.81629 c 0.1778,-0.15804 0.27658,-0.37535 0.27658,-0.73095 v -2.03482 h 0.3556 v 4.18817 c 0,0.63218 0.27657,0.90876 0.90875,0.90876 h 3.06211 c 0.27658,0 0.49389,-0.079 0.61242,-0.19756 l 2.56823,-2.1336 c 0.1778,-0.15804 0.27657,-0.37535 0.27657,-0.73095 v -12.8016 c 0,-0.63218 -0.27657,-0.90876 -0.90875,-0.90876 h -3.06211 c -0.27658,0 -0.49389,0.0593 -0.63218,0.1778 l -2.54847,2.15336 c -0.1778,0.15804 -0.27657,0.37535 -0.27657,0.73095 v 1.93605 h -0.3556 v -4.0894 c 0,-0.63218 -0.27658,-0.90876 -0.90876,-0.90876 h -3.06211 c -0.27658,0 -0.49389,0.0593 -0.63218,0.1778 l -2.54847,2.15336 c -0.1778,0.15804 -0.27657,0.37535 -0.27657,0.73095 v 12.8016 c 0,0.63218 0.27657,0.90876 0.90875,0.90876 h 3.06211 c 0.27658,0 0.49389,-0.079 0.61243,-0.19756 z"
           style=""
           id="path840" />
        <path
           d="m 164.26782,147.19918 2.54847,-2.1336 c 0.889,-0.75071 1.18533,-1.778 1.18533,-3.00284 v -6.73665 c 0,-2.4892 -1.14582,-4.24744 -6.32177,-4.24744 -2.64725,0 -4.20794,0.45438 -5.13645,1.2446 l -2.56822,2.1336 c -0.889,0.75071 -1.18533,1.79776 -1.18533,3.0226 v 6.14398 c 0,2.4892 1.16557,4.82035 6.34153,4.82035 2.62749,0 4.20793,-0.45437 5.13644,-1.2446 z m -4.04989,-5.84764 v -3.7338 c 0.29634,0.11853 0.37536,0.31609 0.37536,0.57291 v 3.75356 c -0.29633,-0.13829 -0.37536,-0.33585 -0.37536,-0.59267 z"
           style=""
           id="path842" />
        <path
           d="m 171.52459,148.14745 c 0.27658,0 0.49389,-0.079 0.61243,-0.19756 l 2.56822,-2.1336 c 0.1778,-0.15804 0.27658,-0.37535 0.27658,-0.73095 v -0.94827 c 1.50142,-0.0593 2.52871,-0.43462 3.18064,-0.98778 l 2.56822,-2.1336 c 0.86925,-0.73095 1.18534,-1.79775 1.18534,-3.06211 v -2.52871 c 0,-2.39042 -1.08656,-4.04989 -4.85987,-4.04989 h -6.0452 c -0.27658,0 -0.49389,0.0593 -0.63218,0.1778 l -2.54847,2.15336 c -0.1778,0.15804 -0.27657,0.37535 -0.27657,0.73095 v 12.8016 c 0,0.63218 0.27657,0.90876 0.90875,0.90876 z"
           style=""
           id="path844" />
      </g>
      <g
         aria-label="ThE Workshop"
         transform="matrix(0.26458333,0,0,0.26458333,-1.3533522,-25.390334)"
         style="font-style:normal;font-variant:normal;font-weight:normal;font-stretch:normal;font-size:74.66666412px;line-height:1.25;font-family:Bungee;-inkscape-font-specification:'Bungee, Normal';font-variant-ligatures:normal;font-variant-caps:normal;font-variant-numeric:normal;font-feature-settings:normal;text-align:start;letter-spacing:0px;word-spacing:0px;writing-mode:lr-tb;text-anchor:start;fill:#ffebeb;fill-opacity:0.97254902;stroke:#550000;stroke-width:0.86929137;stroke-miterlimit:4;stroke-dasharray:none"
         id="flowRoot4531">
        <path
           d="m 114.81992,646.7908 c 1.86666,0 2.688,-0.82133 2.688,-2.688 v -36.66133 h 10.976 c 1.86666,0 2.688,-0.82133 2.688,-2.688 v -9.03466 c 0,-1.86667 -0.82134,-2.688 -2.688,-2.688 H 89.059917 c -1.866667,0 -2.688,0.82133 -2.688,2.688 v 9.03466 c 0,1.86667 0.821333,2.688 2.688,2.688 h 10.976003 v 36.66133 c 0,1.86667 0.82133,2.688 2.688,2.688 z"
           style=""
           id="path847" />
        <path
           d="m 152.69458,646.7908 c 1.86667,0 2.688,-0.82133 2.688,-2.688 v -16.57599 h 12.46934 v 16.57599 c 0,1.86667 0.82133,2.688 2.688,2.688 h 11.57333 c 1.86666,0 2.688,-0.82133 2.688,-2.688 v -48.38399 c 0,-1.86667 -0.82134,-2.688 -2.688,-2.688 h -11.57333 c -1.86667,0 -2.688,0.82133 -2.688,2.688 v 16.20266 h -12.46934 v -16.20266 c 0,-1.86667 -0.82133,-2.688 -2.688,-2.688 h -11.57333 c -1.86667,0 -2.688,0.82133 -2.688,2.688 v 48.38399 c 0,1.86667 0.82133,2.688 2.688,2.688 z"
           style=""
           id="path849" />
        <path
           d="m 232.49575,646.7908 c 1.86666,0 2.688,-0.82133 2.688,-2.688 v -8.73599 c 0,-1.86667 -0.82134,-2.688 -2.688,-2.688 h -20.608 v -6.42134 h 14.56 c 1.86666,0 2.688,-0.82133 2.688,-2.688 v -7.98933 c 0,-1.86667 -0.82134,-2.688 -2.688,-2.688 h -14.56 v -5.74933 h 20.608 c 1.86666,0 2.688,-0.82134 2.688,-2.688 v -8.736 c 0,-1.86667 -0.82134,-2.688 -2.688,-2.688 h -34.64534 c -1.86666,0 -2.688,0.82133 -2.688,2.688 v 48.38399 c 0,1.86667 0.82134,2.688 2.688,2.688 z"
           style=""
           id="path851" />
        <path
           d="m 299.39007,593.03081 c -1.94133,0 -2.688,0.82133 -2.688,2.688 v 27.47733 l -4.33066,-9.408 c -0.82134,-1.71733 -2.016,-2.31467 -3.95734,-2.31467 h -3.136 c -1.94133,0 -3.136,0.59734 -3.95733,2.31467 l -4.33067,9.408 v -27.47733 c 0,-1.86667 -0.82133,-2.688 -2.688,-2.688 h -11.49866 c -1.86667,0 -2.688,0.82133 -2.688,2.688 v 28.82133 c 0,3.21067 0,5.6 1.344,9.25867 l 3.73333,10.30399 c 0.52267,1.568 1.64267,2.688 3.28533,2.688 h 9.856 c 1.568,0 2.688,-0.74666 3.136,-2.24 l 3.50934,-12.17066 c 0.29866,-0.97067 0.74666,-1.26933 1.344,-1.26933 h 0.672 c 0.59733,0 1.04533,0.29866 1.344,1.26933 l 3.43466,12.17066 c 0.448,1.568 1.792,2.24 3.43467,2.24 h 9.93066 c 1.568,0 2.464,-1.19466 2.98667,-2.688 l 3.73333,-10.15466 c 1.344,-3.65867 1.344,-6.048 1.344,-9.25867 v -28.97066 c 0,-1.86667 -0.82133,-2.688 -2.688,-2.688 z"
           style=""
           id="path853" />
        <path
           d="m 368.31324,632.67881 v -25.46134 c 0,-9.10933 -4.48,-15.30666 -23.14666,-15.30666 -18.66667,0 -23.22134,6.19733 -23.22134,15.30666 v 25.46134 c 0,9.10933 4.55467,15.23199 23.22134,15.23199 18.66666,0 23.14666,-6.12266 23.14666,-15.23199 z m -29.41866,-2.688 v -20.08534 c 0,-1.94133 0.896,-3.43466 6.272,-3.43466 5.45066,0 6.272,1.49333 6.272,3.43466 v 20.08534 c 0,2.016 -0.82134,3.50933 -6.272,3.50933 -5.376,0 -6.272,-1.49333 -6.272,-3.50933 z"
           style=""
           id="path855" />
        <path
           d="m 394.62042,606.47081 h 5.6 c 2.61333,0 3.28533,1.49333 3.28533,3.50933 v 2.53867 c 0,2.016 -0.672,3.50933 -3.28533,3.50933 h -5.6 z m -2.688,40.31999 c 1.86666,0 2.688,-0.82133 2.688,-2.688 v -14.63466 h 10.45333 c 2.09067,0 2.83733,0.97067 2.83733,3.21067 v 11.42399 c 0,1.86667 0.82134,2.688 2.688,2.688 h 11.57333 c 1.86667,0 2.688,-0.82133 2.688,-2.688 v -15.82933 c 0,-6.272 -3.58399,-10.22933 -9.03466,-10.82666 3.136,-1.344 4.18133,-4.33067 4.18133,-8.512 v -3.43467 c 0,-7.392 -3.50933,-12.46933 -14.70933,-12.46933 h -24.864 c -1.86667,0 -2.688,0.82133 -2.688,2.688 v 48.38399 c 0,1.86667 0.82133,2.688 2.688,2.688 z"
           style=""
           id="path857" />
        <path
           d="m 447.42374,646.7908 c 1.86667,0 2.688,-0.82133 2.688,-2.688 v -17.09866 h 9.856 c 1.568,0 2.38933,0.896 2.38933,2.53867 v 14.55999 c 0,1.86667 0.82134,2.688 2.688,2.688 h 11.49867 c 1.86666,0 2.688,-0.82133 2.688,-2.688 v -21.05599 c 0,-5.97334 -3.584,-9.856 -9.184,-10.15467 l 7.616,-17.39733 c 0.672,-1.568 0.0747,-2.464 -1.64267,-2.464 h -11.49866 c -1.94134,0 -2.98667,0.672 -3.73334,2.464 l -7.69066,17.39733 h -2.98667 v -17.17333 c 0,-1.86667 -0.82133,-2.688 -2.688,-2.688 h -11.57333 c -1.86667,0 -2.688,0.82133 -2.688,2.688 v 48.38399 c 0,1.86667 0.82133,2.688 2.688,2.688 z"
           style=""
           id="path859" />
        <path
           d="m 513.80942,646.7908 c 9.632,0 15.456,-4.62933 15.456,-13.14133 v -7.84 c 0,-8.36266 -4.62934,-11.34933 -11.648,-12.39466 l -11.12534,-1.49334 c -1.26933,-0.14933 -2.016,-1.04533 -2.016,-2.38933 0,-1.344 0.74667,-2.24 2.016,-2.24 h 17.39734 c 1.86666,0 2.688,-0.82133 2.688,-2.688 v -8.88533 c 0,-1.86667 -0.82134,-2.688 -2.688,-2.688 h -20.90667 c -9.70667,0 -15.456,4.62933 -15.456,13.14133 v 7.84 c 0,8.36267 4.55467,11.34933 11.57333,12.39467 l 11.2,1.568 c 1.26934,0.14933 1.94134,0.82133 1.94134,2.53866 0,1.19467 -0.672,2.16534 -1.94134,2.16534 h -20.08533 c -1.86667,0 -2.688,0.82133 -2.688,2.688 v 8.73599 c 0,1.86667 0.82133,2.688 2.688,2.688 z"
           style=""
           id="path861" />
        <path
           d="m 551.69458,646.7908 c 1.86667,0 2.688,-0.82133 2.688,-2.688 v -16.57599 h 12.46934 v 16.57599 c 0,1.86667 0.82133,2.688 2.688,2.688 h 11.57333 c 1.86666,0 2.688,-0.82133 2.688,-2.688 v -48.38399 c 0,-1.86667 -0.82134,-2.688 -2.688,-2.688 h -11.57333 c -1.86667,0 -2.688,0.82133 -2.688,2.688 v 16.20266 h -12.46934 v -16.20266 c 0,-1.86667 -0.82133,-2.688 -2.688,-2.688 h -11.57333 c -1.86667,0 -2.688,0.82133 -2.688,2.688 v 48.38399 c 0,1.86667 0.82133,2.688 2.688,2.688 z"
           style=""
           id="path863" />
        <path
           d="m 639.70907,632.67881 v -25.46134 c 0,-9.10933 -4.48,-15.30666 -23.14666,-15.30666 -18.66667,0 -23.22134,6.19733 -23.22134,15.30666 v 25.46134 c 0,9.10933 4.55467,15.23199 23.22134,15.23199 18.66666,0 23.14666,-6.12266 23.14666,-15.23199 z m -29.41866,-2.688 v -20.08534 c 0,-1.94133 0.896,-3.43466 6.272,-3.43466 5.45066,0 6.272,1.49333 6.272,3.43466 v 20.08534 c 0,2.016 -0.82134,3.50933 -6.272,3.50933 -5.376,0 -6.272,-1.49333 -6.272,-3.50933 z"
           style=""
           id="path865" />
        <path
           d="m 663.4029,646.7908 c 1.86666,0 2.688,-0.82133 2.688,-2.688 v -12.39466 h 8.58666 c 13.58933,0 17.62133,-5.89867 17.62133,-14.56 v -9.55733 c 0,-8.66134 -4.032,-14.56 -17.62133,-14.56 h -22.848 c -1.86666,0 -2.688,0.82133 -2.688,2.688 v 48.38399 c 0,1.86667 0.82134,2.688 2.688,2.688 z m 2.53866,-39.79733 h 6.72 c 2.912,0 3.50934,1.71734 3.50934,3.65867 v 3.95733 c 0,1.94134 -0.59734,3.65867 -3.50934,3.65867 h -6.72 z"
           style=""
           id="path867" />
      </g>
    </g>
  </g>
</svg>
